<svg width="180" height="45" viewBox="0 0 180 45" fill="none" xmlns="http://www.w3.org/2000/svg">
<g clip-path="url(#clip0_2040_10498)">
<path d="M30.1866 6.29646C29.8634 5.46258 29.4949 4.64381 29.0812 3.85222C28.6644 3.06366 28.2144 2.2902 27.7221 1.54696C27.5832 1.33547 27.4412 1.13002 27.2963 0.924571C26.4536 0.728186 25.5959 0.583163 24.7231 0.489502C24.9979 0.818825 25.2637 1.15721 25.5174 1.50164C26.0942 2.27812 26.6228 3.08481 27.1 3.92473C27.4231 4.48972 27.713 5.06679 27.9879 5.6499C28.7852 5.9188 29.5584 6.24208 30.3013 6.6137C30.2621 6.50796 30.2228 6.40221 30.1805 6.29344" fill="#1e272f"/>
<path d="M20.9841 4.532C20.2834 3.96701 19.5495 3.4413 18.7945 2.96092C18.0364 2.48355 17.2572 2.03942 16.4569 1.63758C16.2334 1.52579 16.0039 1.41703 15.7743 1.31128C14.9408 1.56205 14.1223 1.86418 13.328 2.20861C13.7327 2.35967 14.1314 2.5198 14.524 2.69202C15.4149 3.07875 16.2817 3.51684 17.1153 4.00327C17.677 4.32957 18.2237 4.68608 18.7583 5.05468C19.5677 4.89456 20.4012 4.78881 21.2469 4.74047C21.1593 4.66796 21.0747 4.59545 20.9871 4.52596" fill="#1e272f"/>
<path d="M16.3481 5.47157C15.5236 5.10599 14.681 4.78875 13.8263 4.51683C12.9656 4.24794 12.0988 4.02134 11.2229 3.84308C10.9813 3.79474 10.7367 3.74942 10.492 3.7041C9.7521 4.16334 9.04236 4.66186 8.36584 5.19965C8.79169 5.24195 9.21149 5.29331 9.63129 5.35978C10.5917 5.5048 11.54 5.70421 12.4763 5.96102C13.1075 6.13626 13.7297 6.33566 14.3428 6.55924C15.0857 6.19366 15.8589 5.87643 16.6592 5.61659C16.5565 5.57127 16.4569 5.52293 16.3512 5.47459" fill="#1e272f"/>
<path d="M32.4034 37.3344C33.2943 37.4764 34.1913 37.567 35.0913 37.6063C35.9883 37.6456 36.8883 37.6426 37.7823 37.5912C38.0269 37.5761 38.2746 37.561 38.5192 37.5398C39.1142 36.9084 39.6729 36.2437 40.1894 35.5458C39.7696 35.6153 39.3467 35.6757 38.9239 35.721C37.9605 35.8268 36.988 35.8781 36.0185 35.8721C35.3601 35.866 34.7017 35.8298 34.0494 35.7724C33.4212 36.3192 32.7598 36.8238 32.0591 37.277C32.1738 37.2981 32.2886 37.3193 32.4034 37.3374" fill="#1e272f"/>
<path d="M24.9225 4.44737C24.3939 3.71924 23.8231 3.02735 23.2161 2.36871C22.609 1.71006 21.9717 1.08163 21.3043 0.489453C21.114 0.32328 20.9268 0.163151 20.7365 0C19.8546 0.0271918 18.9848 0.108767 18.1331 0.235662C18.4835 0.486431 18.8308 0.743243 19.166 1.01214C19.9241 1.61338 20.6489 2.25692 21.3285 2.94276C21.7845 3.40502 22.2224 3.88843 22.6392 4.38392C23.4849 4.43831 24.3094 4.5501 25.1188 4.71325C25.0553 4.62261 24.9889 4.53197 24.9255 4.44133" fill="#1e272f"/>
<path d="M34.1279 8.8827C34.0343 7.99142 33.8893 7.10919 33.696 6.23906C33.4997 5.36892 33.2641 4.50784 32.9863 3.6649C32.9078 3.42924 32.8262 3.19357 32.7416 2.96093C31.9775 2.55306 31.1802 2.18748 30.3678 1.87024C30.546 2.25999 30.7151 2.65276 30.8691 3.05459C31.2225 3.95192 31.5245 4.8704 31.7661 5.80097C31.9322 6.4294 32.0682 7.0669 32.1769 7.70439C32.8715 8.16665 33.536 8.67423 34.1581 9.23015C34.149 9.11534 34.14 9.00053 34.1279 8.8827Z" fill="#1e272f"/>
<path d="M40.3253 21.1824C40.8931 20.4875 41.4246 19.7624 41.9078 19.0101C42.3911 18.2547 42.8381 17.4843 43.2397 16.6897C43.3515 16.4661 43.4632 16.2395 43.5689 16.016C43.3122 15.1851 43.0102 14.3754 42.6599 13.5898C42.5058 13.9887 42.3488 14.3875 42.1736 14.7772C41.781 15.6564 41.3431 16.5205 40.8538 17.3484C40.5216 17.9043 40.1652 18.4481 39.7907 18.9738C39.9508 19.7805 40.0595 20.6023 40.1078 21.4422C40.1803 21.3546 40.2558 21.273 40.3253 21.1854V21.1824Z" fill="#1e272f"/>
<path d="M28.1721 39.4281C28.9966 39.7936 29.8392 40.1139 30.697 40.3828C31.5517 40.6517 32.4185 40.8783 33.3003 41.0626C33.542 41.114 33.7866 41.1563 34.0312 41.2016C34.7681 40.7423 35.4809 40.2438 36.1574 39.706C35.7316 39.6637 35.3088 39.6124 34.892 39.5459C33.9316 39.4009 32.9802 39.2015 32.047 38.9447C31.4158 38.7694 30.7936 38.57 30.1805 38.3464C29.4376 38.712 28.6644 39.0293 27.8671 39.2891C27.9698 39.3374 28.0694 39.3858 28.1721 39.4311V39.4281Z" fill="#1e272f"/>
<path d="M39.3769 16.587C39.7454 15.7683 40.0685 14.9344 40.3373 14.0854C40.6061 13.2364 40.8357 12.3723 41.0229 11.5022C41.0712 11.2635 41.1165 11.0188 41.1618 10.774C40.6998 10.0399 40.1984 9.33589 39.6518 8.66516C39.6095 9.0821 39.5581 9.50509 39.4917 9.92203C39.3437 10.8768 39.1444 11.8194 38.8877 12.7439C38.7125 13.3693 38.5101 13.9857 38.2836 14.596C38.6521 15.3332 38.9722 16.1036 39.238 16.8892C39.2833 16.7895 39.3316 16.6867 39.3769 16.587Z" fill="#1e272f"/>
<path d="M37.2658 12.3904C37.4048 11.5052 37.5014 10.6169 37.5437 9.72561C37.583 8.83433 37.5799 7.94304 37.5286 7.05477C37.5135 6.81005 37.4984 6.56834 37.4773 6.32362C36.843 5.73144 36.1725 5.17854 35.4719 4.66492C35.5383 5.08186 35.5987 5.4988 35.644 5.92178C35.7497 6.87954 35.8011 7.84334 35.795 8.80411C35.792 9.45974 35.7558 10.1093 35.6923 10.7559C36.242 11.3753 36.7524 12.0369 37.2115 12.7288C37.2296 12.614 37.2538 12.5022 37.2719 12.3874" fill="#1e272f"/>
<path d="M7.25744 32.5093C7.11247 33.3945 7.02187 34.2828 6.97959 35.1741C6.94032 36.0654 6.94334 36.9567 6.99469 37.8449C7.00979 38.0896 7.02489 38.3314 7.04603 38.5761C7.68027 39.1683 8.35074 39.7212 9.05142 40.2348C8.98196 39.8178 8.92457 39.4009 8.87927 38.9779C8.77357 38.0202 8.72222 37.0564 8.72826 36.0956C8.73128 35.44 8.77055 34.7934 8.83095 34.1438C8.28128 33.5244 7.77389 32.8628 7.31482 32.1709C7.29368 32.2857 7.27254 32.3975 7.25442 32.5123" fill="#1e272f"/>
<path d="M5.97692 14.5899C5.13128 14.9102 4.30979 15.2757 3.51549 15.6866C2.71816 16.1006 1.945 16.5477 1.19298 17.0341C0.978548 17.1701 0.773177 17.3121 0.564786 17.4602C0.368475 18.294 0.223507 19.146 0.126862 20.0101C0.45908 19.7382 0.800359 19.4784 1.14768 19.2276C1.9299 18.6566 2.74535 18.1279 3.59099 17.6535C4.15878 17.3333 4.74168 17.0402 5.33061 16.7683C5.5994 15.9797 5.92558 15.2093 6.3031 14.4751C6.1974 14.5144 6.08867 14.5506 5.98296 14.5929" fill="#1e272f"/>
<path d="M5.14637 28.3128C4.77791 29.1315 4.45475 29.9654 4.18596 30.8144C3.91716 31.6664 3.68763 32.5275 3.50642 33.3976C3.45508 33.6363 3.40675 33.881 3.36749 34.1258C3.82958 34.8569 4.33093 35.5639 4.87758 36.2346C4.91986 35.8147 4.9712 35.3947 5.03764 34.9778C5.18563 34.023 5.38496 33.0804 5.64168 32.1559C5.81685 31.5335 6.0192 30.9141 6.24571 30.3038C5.87725 29.5666 5.55711 28.7992 5.29134 28.0106C5.24604 28.1103 5.19771 28.213 5.15241 28.3128H5.14637Z" fill="#1e272f"/>
<path d="M4.198 23.7173C3.63021 24.4122 3.09866 25.1373 2.61544 25.8896C2.13221 26.6449 1.68523 27.4154 1.28354 28.207C1.1718 28.4305 1.06005 28.6571 0.954346 28.8807C1.21106 29.7116 1.51308 30.5213 1.8604 31.3068C2.0114 30.908 2.17147 30.5122 2.34664 30.1195C2.73926 29.2402 3.17719 28.3762 3.66948 27.5483C3.99867 26.9924 4.35807 26.4486 4.73257 25.9198C4.5725 25.1162 4.4668 24.2913 4.41546 23.4514C4.34297 23.539 4.26747 23.6206 4.198 23.7082" fill="#1e272f"/>
<path d="M23.5392 40.3678C24.2399 40.9328 24.9707 41.4585 25.7288 41.9389C26.4899 42.4162 27.2691 42.8604 28.0664 43.2622C28.2899 43.374 28.5194 43.4858 28.7459 43.5885C29.5856 43.3377 30.398 43.0356 31.1923 42.6912C30.7876 42.5401 30.3919 42.38 29.9963 42.2078C29.1084 41.821 28.2416 41.386 27.408 40.8995C26.8463 40.5702 26.2996 40.2167 25.765 39.8451C24.9556 40.0052 24.1221 40.111 23.2764 40.1593C23.364 40.2318 23.4516 40.3043 23.5392 40.3738" fill="#1e272f"/>
<path d="M4.48193 19.0373C3.75105 19.563 3.05037 20.128 2.38593 20.7292C1.72149 21.3304 1.09028 21.9649 0.495307 22.6266C0.326178 22.8139 0.163089 23.0012 0 23.1946C0.0271815 24.0678 0.108726 24.9318 0.238593 25.7778C0.492287 25.4304 0.752021 25.0859 1.02082 24.7536C1.62787 24.0013 2.27721 23.2852 2.96882 22.6085C3.43393 22.1522 3.9232 21.7202 4.42152 21.3063C4.47287 20.4663 4.58763 19.6476 4.75374 18.8469C4.66314 18.9104 4.57253 18.9708 4.47891 19.0373H4.48193Z" fill="#1e272f"/>
<path d="M40.9354 27.2522C40.3676 27.5694 39.7847 27.8655 39.1958 28.1314C38.927 28.92 38.6008 29.6904 38.2233 30.4246C38.332 30.3853 38.4377 30.349 38.5464 30.3098C39.3891 29.9895 40.2136 29.6239 41.0139 29.213C41.8112 28.8021 42.5844 28.352 43.3364 27.8655C43.5478 27.7296 43.7562 27.5876 43.9646 27.4395C44.1609 26.6087 44.3059 25.7536 44.4025 24.8895C44.0703 25.1614 43.729 25.4243 43.3817 25.6751C42.5995 26.2461 41.784 26.7718 40.9384 27.2431" fill="#1e272f"/>
<path d="M40.0414 25.8624C40.7753 25.3367 41.4729 24.7717 42.1343 24.1704C42.7988 23.5692 43.43 22.9347 44.028 22.2731C44.1941 22.0857 44.3572 21.8984 44.5203 21.705C44.4931 20.8289 44.4116 19.9678 44.2817 19.1218C44.028 19.4693 43.7683 19.8137 43.4995 20.1491C42.8924 20.9014 42.2431 21.6174 41.5515 22.2942C41.0864 22.7504 40.5971 23.1825 40.0988 23.5964C40.0474 24.4303 39.9326 25.2521 39.7665 26.0557C39.8571 25.9923 39.9478 25.9319 40.0414 25.8654" fill="#1e272f"/>
<path d="M14.3367 38.6032C14.6599 39.4432 15.0283 40.2559 15.4421 41.0505C15.8589 41.8391 16.3119 42.6095 16.8012 43.3558C16.9401 43.5673 17.082 43.7727 17.23 43.9782C18.0727 44.1685 18.9274 44.3166 19.8032 44.4102C19.5284 44.0809 19.2626 43.7425 19.0089 43.3981C18.4321 42.6216 17.9035 41.8149 17.4263 40.975C17.1032 40.41 16.8102 39.8329 16.5354 39.2498C15.7351 38.9809 14.9649 38.6576 14.2189 38.286C14.2582 38.3948 14.2975 38.4975 14.3397 38.6032" fill="#1e272f"/>
<path d="M10.3954 36.017C10.486 36.9083 10.631 37.7905 10.8243 38.6607C11.0206 39.5308 11.2562 40.3919 11.534 41.2348C11.6125 41.4705 11.6941 41.7061 11.7786 41.9388C12.5458 42.3467 13.337 42.7122 14.1525 43.0295C13.9743 42.6397 13.8052 42.247 13.6511 41.8451C13.3008 40.9478 12.9988 40.0323 12.7542 39.1018C12.588 38.4703 12.4552 37.8358 12.3434 37.1953C11.6458 36.7331 10.9843 36.2255 10.3622 35.6696C10.3712 35.7844 10.3833 35.9022 10.3924 36.014" fill="#1e272f"/>
<path d="M8.5833 10.6773C7.68631 10.771 6.79838 10.9099 5.9165 11.1063C5.04065 11.3027 4.17386 11.5323 3.32519 11.8103C3.0866 11.8858 2.85103 11.9704 2.61545 12.055C2.20471 12.8134 1.83625 13.5989 1.51611 14.4116C1.90873 14.2334 2.30438 14.0672 2.70908 13.9131C3.61513 13.5657 4.53628 13.2636 5.47857 13.0218C6.11281 12.8587 6.75308 12.7258 7.39638 12.614C7.86148 11.9221 8.37491 11.2665 8.93364 10.6471C8.81887 10.6562 8.69807 10.6652 8.5833 10.6773Z" fill="#1e272f"/>
<path d="M18.8217 40.0868C19.3502 40.8149 19.921 41.5068 20.5281 42.1655C21.1352 42.8241 21.7724 43.4495 22.4399 44.0447C22.6301 44.2109 22.8174 44.371 23.0077 44.5342C23.8895 44.507 24.7594 44.4254 25.611 44.2985C25.2607 44.0477 24.9164 43.7909 24.5751 43.522C23.8171 42.9208 23.0952 42.2773 22.4127 41.5914C21.9536 41.1292 21.5187 40.6457 21.1019 40.1502C20.2593 40.0959 19.4318 39.9871 18.6224 39.8209C18.6888 39.9116 18.7522 40.0022 18.8157 40.0928" fill="#1e272f"/>
<path d="M12.1199 7.56536C11.229 7.42638 10.332 7.33272 9.43196 7.29042C8.53497 7.25115 7.63496 7.25417 6.74099 7.30855C6.49636 7.32366 6.24871 7.33877 6.00407 7.35689C5.41212 7.98533 4.85037 8.65304 4.3309 9.34794C4.75071 9.28147 5.17353 9.22406 5.59635 9.17874C6.56583 9.073 7.53228 9.02164 8.50175 9.02768C9.15713 9.03372 9.81854 9.06696 10.4709 9.12738C11.0961 8.58052 11.7605 8.07597 12.4612 7.62277C12.3464 7.60162 12.2317 7.58047 12.1169 7.56234" fill="#1e272f"/>
<path d="M35.94 34.2224C36.837 34.1317 37.7279 33.9897 38.6068 33.7964C39.4827 33.6 40.3494 33.3673 41.2041 33.0894C41.4427 33.0139 41.6783 32.9293 41.9139 32.8447C42.3246 32.0863 42.6931 31.3008 43.0132 30.488C42.6206 30.6663 42.225 30.8325 41.8203 30.9866C40.9142 31.337 39.99 31.6361 39.0508 31.8778C38.4165 32.041 37.7732 32.1769 37.133 32.2857C36.6679 32.9776 36.1544 33.6362 35.5957 34.2526C35.7105 34.2435 35.8313 34.2345 35.946 34.2224" fill="#1e272f"/>
<path d="M21.5368 38.5519C20.6066 37.6002 19.77 36.5578 19.0331 35.4339C18.6586 35.3433 18.2871 35.2345 17.9247 35.1136C18.6133 36.6334 19.4891 38.0836 20.522 39.416C20.7123 39.6637 20.9086 39.9054 21.1079 40.1441C21.4855 40.1683 21.872 40.1834 22.2616 40.1834C22.6029 40.1834 22.9412 40.1743 23.2794 40.1532C22.6724 39.6517 22.0895 39.1199 21.5398 38.5519" fill="#1e272f"/>
<path d="M22.9865 6.34779C23.9167 7.29648 24.7533 8.34185 25.4872 9.46276C25.8647 9.55642 26.2331 9.66217 26.5956 9.78302C25.91 8.2633 25.0311 6.81307 23.9982 5.48067C23.808 5.23292 23.6086 4.99424 23.4093 4.75253C23.0257 4.72836 22.6452 4.71326 22.2586 4.71326C21.9143 4.71326 21.5791 4.72232 21.2378 4.74347C21.8448 5.24501 22.4277 5.77676 22.9804 6.34477" fill="#1e272f"/>
<path d="M22.5274 35.8176H22.2616C21.9627 35.8176 21.6667 35.8085 21.3737 35.7904C22.4338 37.0865 23.657 38.2588 25.007 39.2861C25.2546 39.4734 25.5083 39.6577 25.7681 39.839C26.4838 39.697 27.1845 39.5127 27.8671 39.2891C27.1483 38.9628 26.4476 38.5942 25.765 38.1893C24.6174 37.5065 23.5301 36.7149 22.5304 35.8206" fill="#1e272f"/>
<path d="M21.9929 9.08509H22.2617C22.5607 9.08509 22.8536 9.09415 23.1496 9.11228C22.0895 7.81614 20.8633 6.64387 19.5163 5.61662C19.2687 5.42628 19.015 5.245 18.7553 5.06372C18.0395 5.20572 17.3388 5.39002 16.6562 5.6136C17.372 5.9399 18.0757 6.3085 18.7583 6.71638C19.9059 7.39919 20.9932 8.18776 21.9929 9.08509Z" fill="#1e272f"/>
<path d="M26.0097 35.295C25.6412 35.4008 25.2667 35.4944 24.8832 35.5669C26.2453 36.5458 27.7342 37.3616 29.3047 38.0051C29.5916 38.123 29.8846 38.2348 30.1775 38.3435C30.8269 38.0233 31.4551 37.6698 32.0591 37.274C31.2829 37.141 30.5128 36.9688 29.7517 36.7513C28.4681 36.3887 27.2147 35.9023 26.0157 35.292" fill="#1e272f"/>
<path d="M18.5106 9.60478C18.8791 9.49903 19.2536 9.40839 19.6341 9.33286C18.272 8.35395 16.7861 7.5382 15.2186 6.89164C14.9287 6.77381 14.6357 6.66202 14.3458 6.55627C13.6965 6.87653 13.0683 7.23003 12.4703 7.62884C13.2465 7.76178 14.0166 7.93097 14.7777 8.14851C16.0613 8.51408 17.3176 8.99749 18.5166 9.6078" fill="#1e272f"/>
<path d="M33.2278 34.3432C31.8899 34.3221 30.552 34.1771 29.2352 33.8931C28.906 34.0925 28.5677 34.2768 28.2204 34.4429C29.7879 35.0381 31.4399 35.446 33.1251 35.6666C33.4332 35.7059 33.7382 35.7391 34.0463 35.7663C34.5899 35.2919 35.1034 34.7874 35.5866 34.2526C34.8044 34.3221 34.0161 34.3523 33.2248 34.3402H33.2278V34.3432Z" fill="#1e272f"/>
<path d="M11.2954 10.5565C12.6334 10.5776 13.9683 10.7257 15.2881 11.0066C15.6173 10.8072 15.9555 10.6229 16.3029 10.4568C14.7354 9.86156 13.0834 9.45368 11.3981 9.23313C11.0931 9.19385 10.785 9.16061 10.4739 9.13342C9.93031 9.60777 9.41688 10.1153 8.93365 10.6471C9.71588 10.5776 10.5041 10.5474 11.2954 10.5565Z" fill="#1e272f"/>
<path d="M31.9775 31.7178C31.7118 31.9927 31.4309 32.2586 31.144 32.5124C32.8172 32.6876 34.5175 32.6544 36.2058 32.4368C36.5138 32.3976 36.8189 32.3462 37.13 32.2948C37.5347 31.6996 37.8971 31.0773 38.2293 30.4337C37.4894 30.7056 36.7313 30.9383 35.9642 31.1286C34.6685 31.4519 33.3336 31.6543 31.9866 31.7238" fill="#1e272f"/>
<path d="M12.5458 13.185C12.8115 12.9101 13.0894 12.6442 13.3793 12.3964C11.7061 12.2272 10.0028 12.2544 8.31752 12.472C8.00946 12.5112 7.70442 12.5596 7.39335 12.614C6.98864 13.2092 6.62622 13.8316 6.29401 14.4751C7.03395 14.2032 7.79201 13.9705 8.55913 13.7802C9.8578 13.4569 11.1897 13.2545 12.5367 13.185" fill="#1e272f"/>
<path d="M34.0705 28.9019C33.8833 29.2403 33.6809 29.5666 33.4665 29.8839C35.1246 29.618 36.7645 29.1527 38.332 28.5092C38.6219 28.3913 38.9119 28.2614 39.1957 28.1285C39.4283 27.4547 39.6156 26.7598 39.7666 26.0498C39.1202 26.503 38.4467 26.923 37.7521 27.3067C36.5833 27.9502 35.3481 28.485 34.0675 28.9019H34.0705Z" fill="#1e272f"/>
<path d="M10.4558 15.9978C10.643 15.6624 10.8454 15.3331 11.0598 15.0159C9.40176 15.2817 7.76181 15.747 6.19435 16.3906C5.90441 16.5084 5.61749 16.6353 5.33058 16.7652C5.09803 17.439 4.91078 18.1369 4.76279 18.8469C5.41212 18.3937 6.0826 17.9737 6.77724 17.59C7.94604 16.9465 9.18129 16.4117 10.4618 15.9948" fill="#1e272f"/>
<path d="M38.492 23.1644C37.5346 24.0859 36.4806 24.9228 35.348 25.6479C35.2574 26.0195 35.1487 26.3851 35.0248 26.7477C36.5591 26.0679 38.0178 25.1947 39.3618 24.1735C39.6095 23.9862 39.8541 23.7898 40.0957 23.5934C40.1199 23.2127 40.135 22.8351 40.135 22.4483C40.135 22.1069 40.1259 21.7685 40.1048 21.4392C39.6004 22.0405 39.0628 22.6205 38.492 23.1644Z" fill="#1e272f"/>
<path d="M6.03124 21.7353C6.98864 20.8138 8.04268 19.98 9.17222 19.2488C9.26282 18.8772 9.37155 18.5116 9.4984 18.149C7.96415 18.8288 6.50541 19.702 5.15842 20.7232C4.91076 20.9105 4.66613 21.1099 4.42452 21.3093C4.40035 21.684 4.38525 22.0677 4.38525 22.4514C4.38525 22.7928 4.39431 23.1251 4.41546 23.4605C4.91982 22.8593 5.45741 22.2792 6.03426 21.7353" fill="#1e272f"/>
<path d="M35.7346 22.1825V22.4483C35.7346 22.7444 35.7255 23.0375 35.7044 23.3275C37.0091 22.2761 38.193 21.0616 39.2259 19.7231C39.4192 19.4754 39.6004 19.2246 39.7846 18.9678C39.6457 18.2578 39.4555 17.5659 39.2289 16.8861C38.8967 17.5991 38.5283 18.2971 38.1205 18.9708C37.4319 20.1098 36.6316 21.1885 35.7316 22.1794" fill="#1e272f"/>
<path d="M8.78567 22.7172C8.78567 22.6296 8.78265 22.542 8.78265 22.4513C8.78265 22.1553 8.79171 21.8592 8.81285 21.5721C7.50814 22.6236 6.32423 23.8411 5.29134 25.1766C5.09805 25.4243 4.91684 25.6781 4.7326 25.9319C4.87757 26.6419 5.0618 27.3368 5.28832 28.0136C5.62053 27.3006 5.98899 26.6026 6.39672 25.9289C7.08531 24.7898 7.88566 23.7112 8.78567 22.7202" fill="#1e272f"/>
<path d="M35.2091 18.7291C35.3148 19.0977 35.4054 19.4663 35.4839 19.847C36.4685 18.4965 37.293 17.0221 37.9424 15.4631C38.0632 15.1791 38.1749 14.889 38.2836 14.596C37.9635 13.9524 37.6041 13.33 37.2054 12.7318C37.0695 13.5022 36.8974 14.2666 36.6799 15.022C36.3145 16.297 35.8252 17.5387 35.2091 18.7291Z" fill="#1e272f"/>
<path d="M9.31415 26.1737C9.20543 25.8081 9.11784 25.4365 9.03932 25.0558C8.05474 26.4063 7.23024 27.8868 6.57788 29.4397C6.4601 29.7237 6.34533 30.0138 6.23962 30.3068C6.56278 30.9504 6.91916 31.5728 7.31782 32.171C7.45071 31.4005 7.62588 30.6361 7.84333 29.8808C8.21179 28.6058 8.69804 27.361 9.31415 26.1707V26.1737Z" fill="#1e272f"/>
<path d="M34.2517 11.5716C34.2306 12.898 34.0796 14.2274 33.7987 15.5326C33.998 15.8589 34.1823 16.1972 34.3544 16.5387C34.9554 14.9827 35.3662 13.3451 35.5866 11.6743C35.6289 11.3692 35.6591 11.064 35.6893 10.7589C35.2121 10.2181 34.7048 9.71049 34.1641 9.2301C34.2336 10.0096 34.2668 10.7891 34.2517 11.5716Z" fill="#1e272f"/>
<path d="M10.2716 33.3281C10.2928 32.0018 10.4407 30.6724 10.7216 29.3672C10.5223 29.0409 10.335 28.7055 10.1659 28.3611C9.56489 29.9201 9.15415 31.5546 8.93368 33.2254C8.8914 33.5305 8.8612 33.8387 8.83099 34.1409C9.30818 34.6817 9.82161 35.1923 10.3562 35.6696C10.2867 34.8932 10.2535 34.1106 10.2686 33.3281H10.2716Z" fill="#1e272f"/>
<path d="M31.6 12.8103C31.8778 13.0762 32.1436 13.3542 32.3973 13.6382C32.5725 11.9795 32.5423 10.2906 32.3188 8.61675C32.2795 8.31159 32.2312 8.00644 32.1798 7.70129C31.5788 7.30248 30.9506 6.93992 30.3043 6.6106C30.5792 7.34477 30.8117 8.09708 31.005 8.85845C31.3312 10.1455 31.5335 11.4689 31.6 12.8043" fill="#1e272f"/>
<path d="M12.9203 32.0893C12.6424 31.8234 12.3766 31.5455 12.1199 31.2615C11.9478 32.9202 11.975 34.6091 12.1985 36.2799C12.2377 36.585 12.2891 36.8902 12.3374 37.1953C12.9384 37.5941 13.5605 37.9567 14.2129 38.286C13.9441 37.5518 13.7055 36.7995 13.5152 36.0382C13.1891 34.7541 12.9897 33.4278 12.9203 32.0923V32.0893Z" fill="#1e272f"/>
<path d="M28.7641 10.7377C29.1023 10.9251 29.4315 11.1245 29.7547 11.336C29.4919 9.68935 29.0177 8.06388 28.3684 6.50791C28.2476 6.21786 28.1208 5.93386 27.9849 5.65288C27.3053 5.42326 26.6046 5.23593 25.8889 5.08789C26.3449 5.73143 26.7707 6.39612 27.1543 7.08498C27.8036 8.24516 28.3443 9.46577 28.761 10.7408" fill="#1e272f"/>
<path d="M15.7562 34.1619C15.415 33.9776 15.0858 33.7752 14.7656 33.5637C15.0314 35.2103 15.5025 36.8358 16.1519 38.3948C16.2727 38.6848 16.3995 38.9689 16.5294 39.2498C17.2089 39.4795 17.9096 39.6668 18.6254 39.8148C18.1694 39.1743 17.7435 38.5066 17.3599 37.8177C16.7106 36.6575 16.17 35.4369 15.7532 34.1619" fill="#1e272f"/>
<path d="M132.419 15.7894H137.336C138.565 15.7894 139.55 15.9616 140.287 16.3C141.024 16.6414 141.558 17.1127 141.884 17.717C142.214 18.3213 142.377 19.0071 142.377 19.7745C142.377 20.6023 142.204 21.3214 141.863 21.9317C141.522 22.542 140.999 23.0285 140.293 23.394L143.017 28.8415H140L137.714 24.0134C137.617 24.0134 137.517 24.0164 137.421 24.0225C137.324 24.0285 137.224 24.0315 137.128 24.0315H135.152V28.8415H132.41V15.7864H132.419V15.7894ZM139.601 19.8651C139.601 19.2548 139.426 18.7956 139.073 18.4844C138.719 18.1732 138.079 18.0191 137.155 18.0191H135.161V21.823H137.263C138.167 21.823 138.78 21.6568 139.109 21.3214C139.438 20.9861 139.601 20.5026 139.601 19.8682V19.8651Z" fill="#1e272f"/>
<path d="M143.259 22.3517C143.259 20.8894 143.518 19.6415 144.035 18.6113C144.551 17.581 145.288 16.7985 146.236 16.2607C147.188 15.7259 148.302 15.457 149.58 15.457C150.857 15.457 151.969 15.7229 152.905 16.2516C153.844 16.7804 154.566 17.5538 155.07 18.566C155.575 19.5781 155.829 20.8078 155.829 22.258C155.829 23.7082 155.572 24.9681 155.061 25.9984C154.551 27.0287 153.826 27.8142 152.887 28.358C151.948 28.8988 150.827 29.1708 149.522 29.1708C148.218 29.1708 147.133 28.9049 146.197 28.3762C145.258 27.8474 144.533 27.074 144.023 26.0618C143.512 25.0497 143.256 23.814 143.256 22.3486H143.259V22.3517ZM146.255 22.3154C146.255 23.681 146.529 24.7506 147.076 25.524C147.626 26.2975 148.447 26.6842 149.544 26.6842C150.64 26.6842 151.446 26.2975 152.002 25.524C152.558 24.7506 152.833 23.681 152.833 22.3154C152.833 20.9498 152.555 19.8802 152.002 19.1068C151.446 18.3333 150.628 17.9466 149.544 17.9466C148.459 17.9466 147.626 18.3333 147.076 19.1068C146.526 19.8802 146.255 20.9498 146.255 22.3154Z" fill="#1e272f"/>
<path d="M157.112 23.4877V15.7894H159.999V23.6146C159.999 24.6509 160.193 25.4214 160.576 25.929C160.96 26.4335 161.585 26.6873 162.449 26.6873C163.312 26.6873 163.965 26.4335 164.33 25.929C164.696 25.4244 164.88 24.6509 164.88 23.6146V15.7894H167.767V23.524C167.767 25.4365 167.308 26.8595 166.387 27.784C165.466 28.7116 164.143 29.1738 162.412 29.1738C160.682 29.1738 159.365 28.7146 158.465 27.7931C157.562 26.8716 157.112 25.4365 157.112 23.4877Z" fill="#1e272f"/>
<path d="M169.468 15.7894H174.164C175.42 15.7894 176.417 15.9616 177.16 16.3091C177.903 16.6565 178.44 17.1429 178.77 17.7714C179.099 18.3998 179.262 19.14 179.262 19.992C179.262 20.8441 179.096 21.6356 178.761 22.2852C178.425 22.9378 177.885 23.4424 177.142 23.8019C176.399 24.1615 175.411 24.3427 174.182 24.3427H172.243V28.8415H169.465V15.7864L169.468 15.7894ZM176.577 20.0313C176.577 19.3606 176.405 18.8711 176.067 18.5599C175.725 18.2487 175.091 18.0947 174.167 18.0947H172.249V22.0435H174.188C175.127 22.0435 175.762 21.8713 176.088 21.5238C176.417 21.1764 176.58 20.6809 176.58 20.0343H176.577V20.0313Z" fill="#1e272f"/>
<path d="M125.675 21.6749V23.959H128.215V26.0981C127.521 26.5241 126.669 26.7386 125.657 26.7386C124.437 26.7386 123.549 26.3549 122.987 25.5875C122.806 25.3398 122.658 25.0528 122.534 24.7385C122.383 25.4214 122.163 26.0468 121.873 26.6148C121.67 27.0166 121.435 27.3822 121.175 27.7176C122.256 28.6813 123.712 29.1708 125.545 29.1708C126.521 29.1708 127.484 29.0197 128.433 28.7146C129.384 28.4094 130.205 27.9653 130.9 27.3792V21.6749H125.672H125.675Z" fill="#1e272f"/>
<path d="M121.888 17.9405C122.178 18.5055 122.395 19.1309 122.546 19.8138C122.761 19.2518 123.072 18.7956 123.492 18.4572C123.96 18.0795 124.579 17.8892 125.346 17.8892C126.113 17.8892 126.699 18.0614 127.065 18.3998C127.43 18.7412 127.693 19.2155 127.85 19.8258L130.701 19.5147C130.468 18.2608 129.91 17.2698 129.019 16.5447C128.128 15.8196 126.91 15.457 125.364 15.457C124.047 15.457 122.927 15.7441 122.003 16.3151C121.725 16.4873 121.468 16.6837 121.23 16.8982C121.474 17.2185 121.698 17.5629 121.888 17.9375V17.9405Z" fill="#1e272f"/>
<path d="M108.992 22.3517C108.992 20.8894 109.251 19.6415 109.768 18.6113C110.284 17.581 111.021 16.7985 111.97 16.2607C112.921 15.7259 114.035 15.457 115.313 15.457C116.59 15.457 117.702 15.7229 118.638 16.2516C119.577 16.7804 120.299 17.5538 120.804 18.566C121.308 19.5781 121.562 20.8078 121.562 22.258C121.562 23.7082 121.305 24.9681 120.795 25.9984C120.284 27.0287 119.559 27.8142 118.62 28.358C117.681 28.8988 116.56 29.1708 115.256 29.1708C113.951 29.1708 112.867 28.9049 111.93 28.3762C110.991 27.8474 110.266 27.074 109.756 26.0618C109.245 25.0497 108.989 23.814 108.989 22.3486H108.992V22.3517ZM111.988 22.3154C111.988 23.681 112.263 24.7506 112.809 25.524C113.359 26.2975 114.18 26.6842 115.277 26.6842C116.373 26.6842 117.179 26.2975 117.735 25.524C118.291 24.7506 118.566 23.681 118.566 22.3154C118.566 20.9498 118.288 19.8802 117.735 19.1068C117.179 18.3333 116.361 17.9466 115.277 17.9466C114.192 17.9466 113.359 18.3333 112.809 19.1068C112.26 19.8802 111.988 20.9498 111.988 22.3154Z" fill="#1e272f"/>
<path d="M56.2989 15.7894H59.6815L63.0067 25.4244L66.3893 15.7894H69.7145V28.8445H67.0628V20.122L64.0094 28.8445H61.8892L58.8932 20.1975V28.8445H56.2989V15.7894Z" fill="#1e272f"/>
<path d="M79.3095 25.9561H74.4108L73.4232 28.8445H70.5359L75.2142 15.7894H78.6149L83.2569 28.8445H80.279L79.3095 25.9561ZM76.8421 18.3122L75.1055 23.6328H78.5968L76.8421 18.3122Z" fill="#1e272f"/>
<path d="M84.0784 15.7894H86.6546L92.1 24.3639V15.7894H94.806V28.8445H92.2661L86.7814 20.2882V28.8445H84.0754V15.7894H84.0784Z" fill="#1e272f"/>
<path d="M96.6363 15.7894H101.589C103.649 15.7894 105.232 16.3272 106.34 17.3998C107.448 18.4724 108.004 20.0827 108.004 22.2278C108.004 24.373 107.421 26.0438 106.259 27.1647C105.096 28.2856 103.465 28.8475 101.369 28.8475H96.6363V15.7925V15.7894ZM105.063 22.2611C105.063 20.9559 104.791 19.9558 104.25 19.2609C103.71 18.566 102.846 18.2186 101.665 18.2186H99.4722V26.4093H101.484C102.713 26.4093 103.619 26.0498 104.199 25.3307C104.779 24.6117 105.066 23.5874 105.066 22.2581L105.063 22.2611Z" fill="#1e272f"/>
</g>
<defs>
<clipPath id="clip0_2040_10498">
<rect width="179.262" height="44.5341" fill="white"/>
</clipPath>
</defs>
</svg>